<mxfile host="app.diagrams.net" agent="Mozilla/5.0 (Windows NT 10.0; Win64; x64) AppleWebKit/537.36 (KHTML, like Gecko) Chrome/130.0.0.0 Safari/537.36" version="24.7.16">
  <diagram name="Page-1" id="tFtbdX1ovqvAF_41Vxhx">
    <mxGraphModel dx="2328" dy="1066" grid="0" gridSize="10" guides="1" tooltips="1" connect="1" arrows="1" fold="1" page="0" pageScale="1" pageWidth="850" pageHeight="1100" math="0" shadow="0">
      <root>
        <mxCell id="0" />
        <mxCell id="1" parent="0" />
        <mxCell id="8dbzwXfBBkByxiEQPmbJ-20" value="" style="rounded=0;whiteSpace=wrap;html=1;" vertex="1" parent="1">
          <mxGeometry x="-82.99764648437503" y="-146.00441925048827" width="410" height="525" as="geometry" />
        </mxCell>
        <mxCell id="8dbzwXfBBkByxiEQPmbJ-21" value="Search Lost and Found Pets" style="ellipse;whiteSpace=wrap;html=1;" vertex="1" parent="1">
          <mxGeometry x="-24.997646484375025" y="-84.00441925048827" width="100" height="70" as="geometry" />
        </mxCell>
        <mxCell id="8dbzwXfBBkByxiEQPmbJ-22" value="Find Veterinarian" style="ellipse;whiteSpace=wrap;html=1;" vertex="1" parent="1">
          <mxGeometry x="-32.997646484375025" y="88.99558074951173" width="120" height="80" as="geometry" />
        </mxCell>
        <mxCell id="8dbzwXfBBkByxiEQPmbJ-23" value="Database" style="shape=umlActor;verticalLabelPosition=bottom;verticalAlign=top;html=1;outlineConnect=0;" vertex="1" parent="1">
          <mxGeometry x="387.002353515625" y="88.99558074951173" width="30" height="60" as="geometry" />
        </mxCell>
        <mxCell id="8dbzwXfBBkByxiEQPmbJ-24" value="" style="endArrow=none;html=1;rounded=0;" edge="1" parent="1" target="8dbzwXfBBkByxiEQPmbJ-22">
          <mxGeometry width="50" height="50" relative="1" as="geometry">
            <mxPoint x="-132.99764648437503" y="98.99558074951173" as="sourcePoint" />
            <mxPoint x="87.00235351562497" y="28.99558074951173" as="targetPoint" />
          </mxGeometry>
        </mxCell>
        <mxCell id="8dbzwXfBBkByxiEQPmbJ-25" value="3. Location subsystem" style="text;html=1;align=center;verticalAlign=middle;whiteSpace=wrap;rounded=0;" vertex="1" parent="1">
          <mxGeometry x="83.50235351562497" y="-131.00441925048827" width="77" height="30" as="geometry" />
        </mxCell>
        <mxCell id="8dbzwXfBBkByxiEQPmbJ-26" value="Load Pet Results" style="ellipse;whiteSpace=wrap;html=1;" vertex="1" parent="1">
          <mxGeometry x="176.00235351562497" y="-74.00441925048827" width="110" height="60" as="geometry" />
        </mxCell>
        <mxCell id="8dbzwXfBBkByxiEQPmbJ-27" value="View Vet Clinic Location" style="ellipse;whiteSpace=wrap;html=1;" vertex="1" parent="1">
          <mxGeometry x="167.00235351562497" y="68.99558074951173" width="90" height="50" as="geometry" />
        </mxCell>
        <mxCell id="8dbzwXfBBkByxiEQPmbJ-28" value="View Vet Details" style="ellipse;whiteSpace=wrap;html=1;" vertex="1" parent="1">
          <mxGeometry x="167.00235351562497" y="138.99558074951173" width="90" height="50" as="geometry" />
        </mxCell>
        <mxCell id="8dbzwXfBBkByxiEQPmbJ-29" value="&amp;lt;&amp;lt;includes&amp;gt;&amp;gt;" style="endArrow=open;endSize=12;dashed=1;html=1;rounded=0;exitX=1;exitY=0.5;exitDx=0;exitDy=0;entryX=0;entryY=0.5;entryDx=0;entryDy=0;" edge="1" parent="1" source="8dbzwXfBBkByxiEQPmbJ-21" target="8dbzwXfBBkByxiEQPmbJ-26">
          <mxGeometry x="-0.0119" y="13" width="160" relative="1" as="geometry">
            <mxPoint x="137.00235351562497" y="-41.00441925048827" as="sourcePoint" />
            <mxPoint x="167.00235351562497" y="-11.004419250488269" as="targetPoint" />
            <mxPoint as="offset" />
          </mxGeometry>
        </mxCell>
        <mxCell id="8dbzwXfBBkByxiEQPmbJ-30" value="&amp;lt;&amp;lt;includes&amp;gt;&amp;gt;" style="endArrow=open;endSize=12;dashed=1;html=1;rounded=0;entryX=0;entryY=0.5;entryDx=0;entryDy=0;" edge="1" parent="1">
          <mxGeometry x="-0.0948" y="17" width="160" relative="1" as="geometry">
            <mxPoint x="86.00210416976762" y="113.95064308597622" as="sourcePoint" />
            <mxPoint x="169.8223535156249" y="92.99558074951184" as="targetPoint" />
            <mxPoint as="offset" />
          </mxGeometry>
        </mxCell>
        <mxCell id="8dbzwXfBBkByxiEQPmbJ-31" value="&amp;lt;&amp;lt;includes&amp;gt;&amp;gt;" style="endArrow=open;endSize=12;dashed=1;html=1;rounded=0;exitX=0.929;exitY=0.786;exitDx=0;exitDy=0;exitPerimeter=0;entryX=0;entryY=0.5;entryDx=0;entryDy=0;" edge="1" parent="1" source="8dbzwXfBBkByxiEQPmbJ-22" target="8dbzwXfBBkByxiEQPmbJ-28">
          <mxGeometry x="0.1439" y="14" width="160" relative="1" as="geometry">
            <mxPoint x="137.00235351562497" y="58.99558074951173" as="sourcePoint" />
            <mxPoint x="167.00235351562497" y="188.99558074951173" as="targetPoint" />
            <mxPoint as="offset" />
          </mxGeometry>
        </mxCell>
        <mxCell id="8dbzwXfBBkByxiEQPmbJ-32" value="" style="endArrow=none;html=1;rounded=0;entryX=0;entryY=0.5;entryDx=0;entryDy=0;" edge="1" parent="1" target="8dbzwXfBBkByxiEQPmbJ-21">
          <mxGeometry width="50" height="50" relative="1" as="geometry">
            <mxPoint x="-132.99764648437503" y="98.99558074951173" as="sourcePoint" />
            <mxPoint x="-22.997646484375025" y="58.99558074951173" as="targetPoint" />
          </mxGeometry>
        </mxCell>
        <mxCell id="8dbzwXfBBkByxiEQPmbJ-33" value="Find Pet Caretaker" style="ellipse;whiteSpace=wrap;html=1;" vertex="1" parent="1">
          <mxGeometry x="-22.997646484375025" y="208.99558074951173" width="120" height="80" as="geometry" />
        </mxCell>
        <mxCell id="8dbzwXfBBkByxiEQPmbJ-34" value="View Caretar Details" style="ellipse;whiteSpace=wrap;html=1;" vertex="1" parent="1">
          <mxGeometry x="169.50235351562497" y="208.99558074951173" width="90" height="50" as="geometry" />
        </mxCell>
        <mxCell id="8dbzwXfBBkByxiEQPmbJ-35" value="View Caretaker&amp;nbsp;&lt;div&gt;Location&lt;/div&gt;" style="ellipse;whiteSpace=wrap;html=1;" vertex="1" parent="1">
          <mxGeometry x="172.00235351562497" y="268.99558074951176" width="90" height="50" as="geometry" />
        </mxCell>
        <mxCell id="8dbzwXfBBkByxiEQPmbJ-36" value="&amp;lt;&amp;lt;includes&amp;gt;&amp;gt;" style="endArrow=open;endSize=12;dashed=1;html=1;rounded=0;entryX=0;entryY=0.5;entryDx=0;entryDy=0;" edge="1" parent="1" target="8dbzwXfBBkByxiEQPmbJ-34">
          <mxGeometry x="-0.5161" y="13" width="160" relative="1" as="geometry">
            <mxPoint x="98.00235351562497" y="228.99558074951173" as="sourcePoint" />
            <mxPoint x="177.00235351562497" y="198.99558074951173" as="targetPoint" />
            <mxPoint as="offset" />
          </mxGeometry>
        </mxCell>
        <mxCell id="8dbzwXfBBkByxiEQPmbJ-37" value="&amp;lt;&amp;lt;includes&amp;gt;&amp;gt;" style="endArrow=open;endSize=12;dashed=1;html=1;rounded=0;entryX=0;entryY=0.5;entryDx=0;entryDy=0;" edge="1" parent="1" source="8dbzwXfBBkByxiEQPmbJ-33" target="8dbzwXfBBkByxiEQPmbJ-35">
          <mxGeometry x="0.0907" y="16" width="160" relative="1" as="geometry">
            <mxPoint x="108.00235351562497" y="238.99558074951173" as="sourcePoint" />
            <mxPoint x="190.00235351562497" y="240.99558074951173" as="targetPoint" />
            <mxPoint as="offset" />
          </mxGeometry>
        </mxCell>
        <mxCell id="8dbzwXfBBkByxiEQPmbJ-38" value="" style="endArrow=none;html=1;rounded=0;entryX=0;entryY=0.5;entryDx=0;entryDy=0;" edge="1" parent="1" target="8dbzwXfBBkByxiEQPmbJ-33">
          <mxGeometry width="50" height="50" relative="1" as="geometry">
            <mxPoint x="-132.99764648437503" y="98.99558074951173" as="sourcePoint" />
            <mxPoint x="-32.997646484375025" y="228.99558074951173" as="targetPoint" />
          </mxGeometry>
        </mxCell>
        <mxCell id="8dbzwXfBBkByxiEQPmbJ-39" value="User" style="shape=umlActor;verticalLabelPosition=bottom;verticalAlign=top;html=1;outlineConnect=0;" vertex="1" parent="1">
          <mxGeometry x="-162.99764648437503" y="78.99558074951173" width="30" height="60" as="geometry" />
        </mxCell>
        <mxCell id="8dbzwXfBBkByxiEQPmbJ-40" value="" style="endArrow=none;html=1;rounded=0;entryX=1;entryY=0.5;entryDx=0;entryDy=0;exitX=0;exitY=0.3333333333333333;exitDx=0;exitDy=0;exitPerimeter=0;" edge="1" parent="1" source="8dbzwXfBBkByxiEQPmbJ-23" target="8dbzwXfBBkByxiEQPmbJ-26">
          <mxGeometry width="50" height="50" relative="1" as="geometry">
            <mxPoint x="397.002353515625" y="113.99558074951184" as="sourcePoint" />
            <mxPoint x="507.002353515625" y="-1.0044192504882687" as="targetPoint" />
          </mxGeometry>
        </mxCell>
        <mxCell id="8dbzwXfBBkByxiEQPmbJ-41" value="" style="endArrow=none;html=1;rounded=0;entryX=1;entryY=0.5;entryDx=0;entryDy=0;" edge="1" parent="1" target="8dbzwXfBBkByxiEQPmbJ-27">
          <mxGeometry width="50" height="50" relative="1" as="geometry">
            <mxPoint x="387.002353515625" y="108.99558074951173" as="sourcePoint" />
            <mxPoint x="279.502353515625" y="-11.004419250488269" as="targetPoint" />
          </mxGeometry>
        </mxCell>
        <mxCell id="8dbzwXfBBkByxiEQPmbJ-42" value="" style="endArrow=none;html=1;rounded=0;entryX=1;entryY=0.5;entryDx=0;entryDy=0;" edge="1" parent="1" target="8dbzwXfBBkByxiEQPmbJ-28">
          <mxGeometry width="50" height="50" relative="1" as="geometry">
            <mxPoint x="387.002353515625" y="108.99558074951173" as="sourcePoint" />
            <mxPoint x="289.502353515625" y="-1.0044192504882687" as="targetPoint" />
          </mxGeometry>
        </mxCell>
        <mxCell id="8dbzwXfBBkByxiEQPmbJ-43" value="" style="endArrow=none;html=1;rounded=0;entryX=1;entryY=0.5;entryDx=0;entryDy=0;" edge="1" parent="1" target="8dbzwXfBBkByxiEQPmbJ-34">
          <mxGeometry width="50" height="50" relative="1" as="geometry">
            <mxPoint x="387.002353515625" y="108.99558074951173" as="sourcePoint" />
            <mxPoint x="299.502353515625" y="8.995580749511731" as="targetPoint" />
          </mxGeometry>
        </mxCell>
        <mxCell id="8dbzwXfBBkByxiEQPmbJ-44" value="" style="endArrow=none;html=1;rounded=0;entryX=1;entryY=0.5;entryDx=0;entryDy=0;" edge="1" parent="1" target="8dbzwXfBBkByxiEQPmbJ-35">
          <mxGeometry width="50" height="50" relative="1" as="geometry">
            <mxPoint x="387.002353515625" y="108.99558074951173" as="sourcePoint" />
            <mxPoint x="309.502353515625" y="18.99558074951173" as="targetPoint" />
          </mxGeometry>
        </mxCell>
        <mxCell id="8dbzwXfBBkByxiEQPmbJ-45" value="Report lost pets" style="ellipse;whiteSpace=wrap;html=1;" vertex="1" parent="1">
          <mxGeometry x="-22.997646484375025" y="-8.004419250488269" width="100" height="70" as="geometry" />
        </mxCell>
        <mxCell id="8dbzwXfBBkByxiEQPmbJ-46" value="" style="endArrow=none;html=1;rounded=0;exitX=1;exitY=0.3333333333333333;exitDx=0;exitDy=0;exitPerimeter=0;" edge="1" parent="1" source="8dbzwXfBBkByxiEQPmbJ-39">
          <mxGeometry width="50" height="50" relative="1" as="geometry">
            <mxPoint x="-123" y="96" as="sourcePoint" />
            <mxPoint x="-24" y="27" as="targetPoint" />
          </mxGeometry>
        </mxCell>
        <mxCell id="8dbzwXfBBkByxiEQPmbJ-48" value="lost and found&amp;nbsp;" style="ellipse;whiteSpace=wrap;html=1;" vertex="1" parent="1">
          <mxGeometry x="162.00235351562497" y="-3.0044192504882687" width="110" height="60" as="geometry" />
        </mxCell>
        <mxCell id="8dbzwXfBBkByxiEQPmbJ-49" value="&amp;lt;&amp;lt;includes&amp;gt;&amp;gt;" style="endArrow=open;endSize=12;dashed=1;html=1;rounded=0;exitX=1;exitY=0.5;exitDx=0;exitDy=0;" edge="1" parent="1" source="8dbzwXfBBkByxiEQPmbJ-45" target="8dbzwXfBBkByxiEQPmbJ-48">
          <mxGeometry x="-0.0119" y="13" width="160" relative="1" as="geometry">
            <mxPoint x="85" y="-39" as="sourcePoint" />
            <mxPoint x="186" y="-34" as="targetPoint" />
            <mxPoint as="offset" />
          </mxGeometry>
        </mxCell>
        <mxCell id="8dbzwXfBBkByxiEQPmbJ-51" value="" style="endArrow=none;html=1;rounded=0;entryX=1;entryY=0.5;entryDx=0;entryDy=0;" edge="1" parent="1" target="8dbzwXfBBkByxiEQPmbJ-48">
          <mxGeometry width="50" height="50" relative="1" as="geometry">
            <mxPoint x="387" y="108" as="sourcePoint" />
            <mxPoint x="296" y="-34" as="targetPoint" />
          </mxGeometry>
        </mxCell>
      </root>
    </mxGraphModel>
  </diagram>
</mxfile>
